<?xml version="1.0" encoding="UTF-8"?>
<svg width="290px" height="296px" viewBox="0 0 290 296" version="1.1" xmlns="http://www.w3.org/2000/svg" xmlns:xlink="http://www.w3.org/1999/xlink">
    <!-- Generator: Sketch 51.1 (57501) - http://www.bohemiancoding.com/sketch -->
    <title>FB_LOGO_OUTLINE</title>
    <desc>Created with Sketch.</desc>
    <defs></defs>
    <g id="FB_LOGO_OUTLINE" stroke="none" stroke-width="1" fill="none" fill-rule="evenodd">
        <g id="LOGO_FINAL-Copy" transform="translate(40.000000, 32.000000)" fill="#FFFFFF">
            <path d="M86.7955635,38.4731585 C89.167278,34.203982 92.2641427,32.2583386 96.118245,31.6253146 C96.3520392,21.2036937 96.7309513,8.74815987 106.007155,7.38485341 C106.271647,2.46148497 106.771489,-0.000117719918 107.506681,4.53479647e-05 C108.244942,-0.0121308827 108.743661,2.4277422 109.002838,7.3196646 C118.722173,8.22375412 119.481985,19.6751301 119.157236,31.8087794 C119.421026,31.7027493 119.704174,31.6160601 120.007538,31.5497123 C124.192048,32.1049073 127.512255,34.1051759 130.007178,38.7798217 C150.07899,47.6735696 162.390014,68.3795247 163,89 C149.045265,72.6279733 125.197737,68.6993542 108.000001,68.7307596 C90.8022633,68.762165 67.9697315,71.95472 53,89 C53.0314526,68.0387219 65.9860586,47.166453 86.7955587,38.4731635 L86.7955635,38.4731585 Z M107.588819,50.6441944 C109.524342,50.6441944 111.093393,48.8444279 111.093393,46.6243035 C111.093393,44.404179 109.524342,42.6044125 107.588819,42.6044125 C105.653296,42.6044125 104.084245,44.404179 104.084245,46.6243035 C104.084245,48.8444279 105.653296,50.6441944 107.588819,50.6441944 Z" id="UPPER-ROOF" fill-rule="nonzero"></path>
            <g id="OXFORDHACK" transform="translate(25.000000, 145.000000)">
                <path d="M0.265625,10.8710938 C0.265625,8.32420602 1.19920941,6.13672789 3.06640625,4.30859375 C4.92579055,2.48045961 7.1601432,1.56640625 9.76953125,1.56640625 C12.3476691,1.56640625 14.5585845,2.48827203 16.4023438,4.33203125 C18.2539155,6.17579047 19.1796875,8.39061207 19.1796875,10.9765625 C19.1796875,13.578138 18.2500093,15.7851472 16.390625,17.5976562 C14.5234282,19.4179779 12.2695445,20.328125 9.62890625,20.328125 C7.29295707,20.328125 5.1953218,19.5195393 3.3359375,17.9023438 C1.28905227,16.1132723 0.265625,13.7695457 0.265625,10.8710938 Z M3.01953125,10.90625 C3.01953125,12.90626 3.69139953,14.5507748 5.03515625,15.8398438 C6.37110043,17.1289127 7.91405375,17.7734375 9.6640625,17.7734375 C11.5625095,17.7734375 13.164056,17.1171941 14.46875,15.8046875 C15.773444,14.4765559 16.4257812,12.8593845 16.4257812,10.953125 C16.4257812,9.02342785 15.7812564,7.40625652 14.4921875,6.1015625 C13.2109311,4.78905594 11.6250095,4.1328125 9.734375,4.1328125 C7.85155309,4.1328125 6.26172523,4.78905594 4.96484375,6.1015625 C3.66796227,7.39844398 3.01953125,8.99999047 3.01953125,10.90625 Z M25.8242188,10.5429688 L20.84375,1.90625 L23.9492188,1.90625 L27.40625,8.03515625 L31.0390625,1.90625 L34.1679688,1.90625 L28.953125,10.5429688 L34.4257812,20 L31.3671875,20 L27.359375,13.0742188 L23.234375,20 L20.140625,20 L25.8242188,10.5429688 Z M45.8984375,4.47265625 L39.59375,4.47265625 L39.59375,8.8203125 L45.6757812,8.8203125 L45.6757812,11.3867188 L39.59375,11.3867188 L39.59375,20 L36.8632812,20 L36.8632812,1.90625 L45.8984375,1.90625 L45.8984375,4.47265625 Z M48.1835938,10.8710938 C48.1835938,8.32420602 49.1171782,6.13672789 50.984375,4.30859375 C52.8437593,2.48045961 55.078112,1.56640625 57.6875,1.56640625 C60.2656379,1.56640625 62.4765533,2.48827203 64.3203125,4.33203125 C66.1718843,6.17579047 67.0976562,8.39061207 67.0976562,10.9765625 C67.0976562,13.578138 66.167978,15.7851472 64.3085938,17.5976562 C62.4413969,19.4179779 60.1875132,20.328125 57.546875,20.328125 C55.2109258,20.328125 53.1132905,19.5195393 51.2539062,17.9023438 C49.207021,16.1132723 48.1835938,13.7695457 48.1835938,10.8710938 Z M50.9375,10.90625 C50.9375,12.90626 51.6093683,14.5507748 52.953125,15.8398438 C54.2890692,17.1289127 55.8320225,17.7734375 57.5820312,17.7734375 C59.4804782,17.7734375 61.0820247,17.1171941 62.3867188,15.8046875 C63.6914128,14.4765559 64.34375,12.8593845 64.34375,10.953125 C64.34375,9.02342785 63.6992252,7.40625652 62.4101562,6.1015625 C61.1288998,4.78905594 59.5429782,4.1328125 57.6523438,4.1328125 C55.7695218,4.1328125 54.179694,4.78905594 52.8828125,6.1015625 C51.585931,7.39844398 50.9375,8.99999047 50.9375,10.90625 Z M76.6601562,12.2890625 L82.2617188,20 L78.921875,20 L73.7539062,12.59375 L73.2617188,12.59375 L73.2617188,20 L70.53125,20 L70.53125,1.90625 L73.7304688,1.90625 C76.1211057,1.90625 77.8476509,2.35546426 78.9101562,3.25390625 C80.0820371,4.25391125 80.6679688,5.57421055 80.6679688,7.21484375 C80.6679688,8.49610016 80.3007849,9.59765164 79.5664062,10.5195312 C78.8320276,11.4414109 77.8632873,12.0312487 76.6601562,12.2890625 Z M73.2617188,10.2148438 L74.1289062,10.2148438 C76.7148567,10.2148438 78.0078125,9.22657238 78.0078125,7.25 C78.0078125,5.39842824 76.7500126,4.47265625 74.234375,4.47265625 L73.2617188,4.47265625 L73.2617188,10.2148438 Z M84.9804688,20 L84.9804688,1.90625 L88.7773438,1.90625 C90.5976654,1.90625 92.035151,2.0859357 93.0898438,2.4453125 C94.2226619,2.79687676 95.2499954,3.39452703 96.171875,4.23828125 C98.0390718,5.94141477 98.9726562,8.17967363 98.9726562,10.953125 C98.9726562,13.7343889 98.0000097,15.9843664 96.0546875,17.703125 C95.0781201,18.5625043 94.0546929,19.1601546 92.984375,19.4960938 C91.98437,19.8320329 90.5664154,20 88.7304688,20 L84.9804688,20 Z M87.7109375,17.4335938 L88.9414062,17.4335938 C90.1679749,17.4335938 91.1874959,17.3046888 92,17.046875 C92.8125041,16.7734361 93.5468717,16.3398467 94.203125,15.7460938 C95.5468817,14.5195251 96.21875,12.9218848 96.21875,10.953125 C96.21875,8.96874008 95.5546941,7.35938117 94.2265625,6.125 C93.031244,5.02343199 91.2695429,4.47265625 88.9414062,4.47265625 L87.7109375,4.47265625 L87.7109375,17.4335938 Z" id="OXFORD"></path>
                <path d="M105.136718,8.984375 L112.941406,8.984375 L112.941406,1.90625 L115.671875,1.90625 L115.671875,20 L112.941406,20 L112.941406,11.5507812 L105.136718,11.5507812 L105.136718,20 L102.40625,20 L102.40625,1.90625 L105.136718,1.90625 L105.136718,8.984375 Z M130.636718,15.6054688 L122.890625,15.6054688 L120.875,20 L117.933593,20 L126.886718,0.76953125 L135.523437,20 L132.535156,20 L130.636718,15.6054688 Z M129.523437,13.0390625 L126.839843,6.88671875 L124.027343,13.0390625 L129.523437,13.0390625 Z M150.3125,2.87890625 L150.3125,6.11328125 C148.734367,4.79296215 147.101571,4.1328125 145.414062,4.1328125 C143.554678,4.1328125 141.988287,4.80077457 140.714843,6.13671875 C139.433587,7.46485039 138.792968,9.08983414 138.792968,11.0117188 C138.792968,12.9101657 139.433587,14.5117122 140.714843,15.8164062 C141.9961,17.1211003 143.566397,17.7734375 145.425781,17.7734375 C146.386723,17.7734375 147.203121,17.6171891 147.875,17.3046875 C148.250002,17.1484367 148.63867,16.9375013 149.041015,16.671875 C149.443361,16.4062487 149.867185,16.0859394 150.3125,15.7109375 L150.3125,19.0039062 C148.749992,19.8867232 147.109383,20.328125 145.390625,20.328125 C142.804674,20.328125 140.597665,19.4257903 138.769531,17.6210938 C136.949209,15.8007721 136.039062,13.6054816 136.039062,11.0351562 C136.039062,8.73045723 136.800773,6.67579027 138.324218,4.87109375 C140.199228,2.6601452 142.624985,1.5546875 145.601562,1.5546875 C147.22657,1.5546875 148.796867,1.99608934 150.3125,2.87890625 Z M156.992187,9.125 L164.035156,1.90625 L167.679687,1.90625 L159.5,10.0976562 L167.726562,20 L164.070312,20 L157.554687,11.9492188 L156.992187,12.5117188 L156.992187,20 L154.261718,20 L154.261718,1.90625 L156.992187,1.90625 L156.992187,9.125 Z" id="HACK"></path>
            </g>
            <path d="M0,136.179207 C4.21194557,112.254449 53.7879405,97 107.575881,97 C161.363821,97 208.982179,114.580916 213.858706,133.877259 C213.559107,138.466442 215.037582,137.596469 212.350954,143.350848 C208.303934,127.724674 177.496031,106.935547 107.575881,106.872776 C37.6557303,106.810004 5.16636697,127.65896 2.68467615,146 C-0.0790471713,140.575172 1.37015097,142.862407 0,136.179207 Z" id="LOWER-ROOF" fill-rule="nonzero"></path>
        </g>
    </g>
</svg>