<?xml version="1.0" encoding="UTF-8"?>
<svg width="294px" height="294px" viewBox="0 0 294 294" version="1.1" xmlns="http://www.w3.org/2000/svg" xmlns:xlink="http://www.w3.org/1999/xlink">
    <!-- Generator: Sketch 51.1 (57501) - http://www.bohemiancoding.com/sketch -->
    <title>FB_LOGO</title>
    <desc>Created with Sketch.</desc>
    <defs>
        <path d="M1.265625,15.8710938 C1.265625,13.324206 2.19920941,11.1367279 4.06640625,9.30859375 C5.92579055,7.48045961 8.1601432,6.56640625 10.7695312,6.56640625 C13.3476691,6.56640625 15.5585845,7.48827203 17.4023438,9.33203125 C19.2539155,11.1757905 20.1796875,13.3906121 20.1796875,15.9765625 C20.1796875,18.578138 19.2500093,20.7851472 17.390625,22.5976562 C15.5234282,24.4179779 13.2695445,25.328125 10.6289062,25.328125 C8.29295707,25.328125 6.1953218,24.5195393 4.3359375,22.9023438 C2.28905227,21.1132723 1.265625,18.7695457 1.265625,15.8710938 Z M4.01953125,15.90625 C4.01953125,17.90626 4.69139953,19.5507748 6.03515625,20.8398438 C7.37110043,22.1289127 8.91405375,22.7734375 10.6640625,22.7734375 C12.5625095,22.7734375 14.164056,22.1171941 15.46875,20.8046875 C16.773444,19.4765559 17.4257812,17.8593845 17.4257812,15.953125 C17.4257812,14.0234279 16.7812564,12.4062565 15.4921875,11.1015625 C14.2109311,9.78905594 12.6250095,9.1328125 10.734375,9.1328125 C8.85155309,9.1328125 7.26172523,9.78905594 5.96484375,11.1015625 C4.66796227,12.398444 4.01953125,13.9999905 4.01953125,15.90625 Z M26.8242188,15.5429688 L21.84375,6.90625 L24.9492188,6.90625 L28.40625,13.0351562 L32.0390625,6.90625 L35.1679688,6.90625 L29.953125,15.5429688 L35.4257812,25 L32.3671875,25 L28.359375,18.0742188 L24.234375,25 L21.140625,25 L26.8242188,15.5429688 Z M46.8984375,9.47265625 L40.59375,9.47265625 L40.59375,13.8203125 L46.6757812,13.8203125 L46.6757812,16.3867188 L40.59375,16.3867188 L40.59375,25 L37.8632812,25 L37.8632812,6.90625 L46.8984375,6.90625 L46.8984375,9.47265625 Z M49.1835938,15.8710938 C49.1835938,13.324206 50.1171782,11.1367279 51.984375,9.30859375 C53.8437593,7.48045961 56.078112,6.56640625 58.6875,6.56640625 C61.2656379,6.56640625 63.4765533,7.48827203 65.3203125,9.33203125 C67.1718843,11.1757905 68.0976562,13.3906121 68.0976562,15.9765625 C68.0976562,18.578138 67.167978,20.7851472 65.3085938,22.5976562 C63.4413969,24.4179779 61.1875132,25.328125 58.546875,25.328125 C56.2109258,25.328125 54.1132905,24.5195393 52.2539062,22.9023438 C50.207021,21.1132723 49.1835938,18.7695457 49.1835938,15.8710938 Z M51.9375,15.90625 C51.9375,17.90626 52.6093683,19.5507748 53.953125,20.8398438 C55.2890692,22.1289127 56.8320225,22.7734375 58.5820312,22.7734375 C60.4804782,22.7734375 62.0820247,22.1171941 63.3867188,20.8046875 C64.6914128,19.4765559 65.34375,17.8593845 65.34375,15.953125 C65.34375,14.0234279 64.6992252,12.4062565 63.4101562,11.1015625 C62.1288998,9.78905594 60.5429782,9.1328125 58.6523438,9.1328125 C56.7695218,9.1328125 55.179694,9.78905594 53.8828125,11.1015625 C52.585931,12.398444 51.9375,13.9999905 51.9375,15.90625 Z M77.6601562,17.2890625 L83.2617188,25 L79.921875,25 L74.7539062,17.59375 L74.2617188,17.59375 L74.2617188,25 L71.53125,25 L71.53125,6.90625 L74.7304688,6.90625 C77.1211057,6.90625 78.8476509,7.35546426 79.9101562,8.25390625 C81.0820371,9.25391125 81.6679688,10.5742105 81.6679688,12.2148438 C81.6679688,13.4961002 81.3007849,14.5976516 80.5664062,15.5195312 C79.8320276,16.4414109 78.8632873,17.0312487 77.6601562,17.2890625 Z M74.2617188,15.2148438 L75.1289062,15.2148438 C77.7148567,15.2148438 79.0078125,14.2265724 79.0078125,12.25 C79.0078125,10.3984282 77.7500126,9.47265625 75.234375,9.47265625 L74.2617188,9.47265625 L74.2617188,15.2148438 Z M85.9804688,25 L85.9804688,6.90625 L89.7773438,6.90625 C91.5976654,6.90625 93.035151,7.0859357 94.0898438,7.4453125 C95.2226619,7.79687676 96.2499954,8.39452703 97.171875,9.23828125 C99.0390718,10.9414148 99.9726562,13.1796736 99.9726562,15.953125 C99.9726562,18.7343889 99.0000097,20.9843664 97.0546875,22.703125 C96.0781201,23.5625043 95.0546929,24.1601546 93.984375,24.4960938 C92.98437,24.8320329 91.5664154,25 89.7304688,25 L85.9804688,25 Z M88.7109375,22.4335938 L89.9414062,22.4335938 C91.1679749,22.4335938 92.1874959,22.3046888 93,22.046875 C93.8125041,21.7734361 94.5468717,21.3398467 95.203125,20.7460938 C96.5468817,19.5195251 97.21875,17.9218848 97.21875,15.953125 C97.21875,13.9687401 96.5546941,12.3593812 95.2265625,11.125 C94.031244,10.023432 92.2695429,9.47265625 89.9414062,9.47265625 L88.7109375,9.47265625 L88.7109375,22.4335938 Z" id="path-1"></path>
        <path d="M106.136719,13.984375 L113.941406,13.984375 L113.941406,6.90625 L116.671875,6.90625 L116.671875,25 L113.941406,25 L113.941406,16.5507812 L106.136719,16.5507812 L106.136719,25 L103.40625,25 L103.40625,6.90625 L106.136719,6.90625 L106.136719,13.984375 Z M131.636719,20.6054688 L123.890625,20.6054688 L121.875,25 L118.933594,25 L127.886719,5.76953125 L136.523437,25 L133.535156,25 L131.636719,20.6054688 Z M130.523437,18.0390625 L127.839844,11.8867188 L125.027344,18.0390625 L130.523437,18.0390625 Z M151.3125,7.87890625 L151.3125,11.1132812 C149.734367,9.79296215 148.101571,9.1328125 146.414062,9.1328125 C144.554678,9.1328125 142.988287,9.80077457 141.714844,11.1367188 C140.433587,12.4648504 139.792969,14.0898341 139.792969,16.0117188 C139.792969,17.9101657 140.433587,19.5117122 141.714844,20.8164062 C142.9961,22.1211003 144.566397,22.7734375 146.425781,22.7734375 C147.386723,22.7734375 148.203121,22.6171891 148.875,22.3046875 C149.250002,22.1484367 149.63867,21.9375013 150.041015,21.671875 C150.443361,21.4062487 150.867185,21.0859394 151.3125,20.7109375 L151.3125,24.0039062 C149.749992,24.8867232 148.109383,25.328125 146.390625,25.328125 C143.804674,25.328125 141.597665,24.4257903 139.769531,22.6210938 C137.949209,20.8007721 137.039062,18.6054816 137.039062,16.0351562 C137.039062,13.7304572 137.800773,11.6757903 139.324219,9.87109375 C141.199228,7.6601452 143.624985,6.5546875 146.601562,6.5546875 C148.22657,6.5546875 149.796867,6.99608934 151.3125,7.87890625 Z M157.992187,14.125 L165.035156,6.90625 L168.679687,6.90625 L160.5,15.0976562 L168.726562,25 L165.070312,25 L158.554687,16.9492188 L157.992187,17.5117188 L157.992187,25 L155.261719,25 L155.261719,6.90625 L157.992187,6.90625 L157.992187,14.125 Z" id="path-2"></path>
    </defs>
    <g id="FB_LOGO" stroke="none" stroke-width="1" fill="none" fill-rule="evenodd">
        <circle id="Oval" fill="#002147" fill-rule="nonzero" cx="147" cy="147" r="147"></circle>
        <circle id="Oval" fill="#FFFFFF" fill-rule="nonzero" cx="147.5" cy="147.5" r="138.5"></circle>
        <g id="LOGO_FINAL-Copy" transform="translate(40.000000, 31.000000)">
            <path d="M86.7338807,38.8891881 C89.1025,34.641136 92.1953231,32.70512 96.0443957,32.0752283 C96.2778848,21.705175 96.6563024,9.31127293 105.9204,7.9547123 C106.184547,3.05570538 106.683737,0.606283051 107.417969,0.606445312 C108.155267,0.594329331 108.653335,3.02212958 108.912174,7.88984605 C118.618825,8.78946201 119.377645,20.184175 119.05332,32.2577852 C119.316766,32.1522798 119.599544,32.0660196 119.902512,32 C124.081561,32.5524479 127.397435,34.5428189 129.889102,39.1943338 C149.934719,48.0440742 162.229677,68.6475733 162.838867,89.1660156 C148.902344,72.875 125.085938,68.9658203 107.910645,68.9970703 C90.7353516,69.0283203 67.9326172,72.2050781 52.9824219,89.1660156 C53.0138335,68.3084569 65.9515331,47.5394669 86.7338759,38.889193 L86.7338807,38.8891881 Z M107.5,51 C109.432997,51 111,49.209139 111,47 C111,44.790861 109.432997,43 107.5,43 C105.567003,43 104,44.790861 104,47 C104,49.209139 105.567003,51 107.5,51 Z" id="UPPER-ROOF" fill="#002147" fill-rule="nonzero"></path>
            <g id="OXFORDHACK" transform="translate(24.000000, 141.000000)">
                <g id="OXFORD">
                    <use fill="#000000" xlink:href="#path-1"></use>
                    <use fill="#002147" xlink:href="#path-1"></use>
                </g>
                <g id="HACK">
                    <use fill="#000000" xlink:href="#path-2"></use>
                    <use fill="#B89D37" xlink:href="#path-2"></use>
                </g>
            </g>
            <path d="M-2.84217094e-14,137.179207 C4.21194556,113.254449 53.7879404,98 107.575881,98 C161.363821,98 208.982179,115.580916 213.858706,134.877259 C213.559107,139.466442 215.037582,138.596469 212.350954,144.350848 C208.303934,128.724674 177.496031,107.935547 107.575881,107.872776 C37.6557302,107.810004 5.16636696,128.65896 2.68467615,147 C-0.0790471712,141.575172 1.37015097,143.862407 -2.84217094e-14,137.179207 Z" id="LOWER-ROOF" fill="#002147" fill-rule="nonzero"></path>
        </g>
        <text id="2018" font-family="Futura-Medium, Futura" font-size="36" font-weight="400" fill="#002147">
            <tspan x="105.304688" y="250">2018</tspan>
        </text>
    </g>
</svg>