<?xml version="1.0" encoding="UTF-8"?>
<svg width="214px" height="219px" viewBox="0 0 214 219" version="1.1" xmlns="http://www.w3.org/2000/svg" xmlns:xlink="http://www.w3.org/1999/xlink">
    <!-- Generator: Sketch 51.1 (57501) - http://www.bohemiancoding.com/sketch -->
    <title>Artboard</title>
    <desc>Created with Sketch.</desc>
    <defs></defs>
    <g id="Artboard" stroke="none" stroke-width="1" fill="none" fill-rule="evenodd">
        <g id="LOGO_FINAL">
            <path d="M86.7338807,38.8891881 C89.1025,34.641136 92.1953231,32.70512 96.0443957,32.0752283 C96.2778848,21.705175 96.6563024,9.31127293 105.9204,7.9547123 C106.184547,3.05570538 106.683737,0.606283051 107.417969,0.606445312 C108.155267,0.594329331 108.653335,3.02212958 108.912174,7.88984605 C118.618825,8.78946201 119.377645,20.184175 119.05332,32.2577852 C119.316766,32.1522798 119.599544,32.0660196 119.902512,32 C124.081561,32.5524479 127.397435,34.5428189 129.889102,39.1943338 C149.934719,48.0440742 162.229677,68.6475733 162.838867,89.1660156 C148.902344,72.875 125.085938,68.9658203 107.910645,68.9970703 C90.7353516,69.0283203 67.9326172,72.2050781 52.9824219,89.1660156 C53.0138335,68.3084569 65.9515331,47.5394669 86.7338759,38.889193 L86.7338807,38.8891881 Z M107.5,51 C109.432997,51 111,49.209139 111,47 C111,44.790861 109.432997,43 107.5,43 C105.567003,43 104,44.790861 104,47 C104,49.209139 105.567003,51 107.5,51 Z" id="UPPER-ROOF" fill="#002147" fill-rule="nonzero"></path>
            <g id="OXFORDHACK" transform="translate(24.000000, 133.000000)" font-family="Futura-Medium, Futura" font-size="24" font-weight="400">
                <text id="OXFORD" fill="#002147">
                    <tspan x="0" y="25">OXFORD</tspan>
                </text>
                <text id="HACK" fill="#B89D37">
                    <tspan x="101.238281" y="25">HACK</tspan>
                </text>
            </g>
            <path d="M-2.84217094e-14,137.179207 C4.21194556,113.254449 53.7879404,98 107.575881,98 C161.363821,98 208.982179,115.580916 213.858706,134.877259 C213.559107,139.466442 215.037582,138.596469 212.350954,144.350848 C208.303934,128.724674 177.496031,107.935547 107.575881,107.872776 C37.6557302,107.810004 5.16636696,128.65896 2.68467615,147 C-0.0790471712,141.575172 1.37015097,143.862407 -2.84217094e-14,137.179207 Z" id="LOWER-ROOF" fill="#002147" fill-rule="nonzero"></path>
            <g id="2018" transform="translate(50.000000, 168.000000)" fill="#002147" font-family="Futura-Medium, Futura" font-size="48" font-weight="400">
                <text>
                    <tspan x="0" y="50">2018</tspan>
                </text>
            </g>
        </g>
    </g>
</svg>